<svg width="418" height="44" viewBox="0 0 418 44" fill="none" xmlns="http://www.w3.org/2000/svg">
<path d="M31.9829 0.660736H26.6924V43.3384H31.9829V0.660736Z" fill="#006DA8"/>
<path d="M71.4801 40.0324C68.8349 40.0324 66.0694 38.9501 64.4462 37.9888L63.1837 41.9559C65.2277 43.158 68.1736 43.9995 71.3599 43.9995C78.1538 43.9995 82.1817 40.3931 82.1817 35.2239C82.1817 30.8957 79.5365 28.3712 74.5466 26.5078C70.7591 25.0051 69.0753 23.9227 69.0753 21.5184C69.0753 19.3546 70.7587 17.5514 73.8853 17.5514C76.5907 17.5514 78.6948 18.5732 79.8371 19.2945L81.0996 15.4476C79.5365 14.4258 76.9514 13.6444 74.0056 13.6444C67.8128 13.6444 63.9652 17.4913 63.9652 22.1796C63.9652 25.6659 66.4301 28.4914 71.721 30.4148C75.5686 31.8574 77.0716 33.1797 77.0716 35.7043C77.0716 38.1691 75.2681 40.0324 71.4801 40.0324Z" fill="#006DA8"/>
<path d="M36.2508 35.6446C36.2508 39.8521 39.2568 44 45.1489 44C49.2971 44 52.4237 41.9563 54.047 39.6723H54.2273L54.6481 43.3388H59.3975C59.0969 41.3553 58.9767 38.8904 58.9767 36.3659V25.486C58.9767 19.7157 56.8124 13.6444 47.9144 13.6444C44.2471 13.6444 40.6996 14.6662 38.2949 16.1689L39.4972 19.7152C41.5413 18.3328 44.3669 17.5514 47.1324 17.5514C53.0841 17.4913 53.7459 21.8791 53.7459 24.2233V24.8244C42.5032 24.7647 36.2508 28.6116 36.2508 35.6446ZM53.8661 28.4918V33.5408C53.8661 34.0217 53.806 34.6228 53.6257 35.2239C52.784 37.6883 50.3191 40.0926 46.4715 40.0926C43.8263 40.0926 41.5417 38.5293 41.5417 35.0431C41.5413 29.393 48.0947 28.3712 53.8661 28.4918Z" fill="#006DA8"/>
<path d="M110.737 2.76495C108.753 2.76495 107.431 4.26764 107.431 6.07086C107.431 7.87409 108.693 9.31666 110.618 9.31666C112.722 9.31666 113.984 7.87409 113.984 6.07086C113.984 4.20753 112.661 2.76495 110.737 2.76495Z" fill="#006DA8"/>
<path d="M92.9426 40.0324C90.2973 40.0324 87.5319 38.9501 85.9086 37.9888L84.6461 41.9559C86.6902 43.158 89.636 43.9995 92.8228 43.9995C99.6162 43.9995 103.644 40.3931 103.644 35.2239C103.644 30.8957 100.999 28.3712 96.0091 26.5078C92.2216 25.0051 90.5378 23.9227 90.5378 21.5184C90.5378 19.3546 92.2211 17.5514 95.3478 17.5514C98.0531 17.5514 100.157 18.5732 101.3 19.2945L102.562 15.4476C100.999 14.4258 98.4139 13.6444 95.468 13.6444C89.2753 13.6444 85.4277 17.4913 85.4277 22.1796C85.4277 25.6659 87.8926 28.4914 93.1835 30.4148C97.0311 31.8574 98.5341 33.1797 98.5341 35.7043C98.5336 38.1691 96.7301 40.0324 92.9426 40.0324Z" fill="#006DA8"/>
<path d="M15.6309 17.8519C18.5166 17.8519 20.5006 18.5732 21.7635 19.2344L22.9659 15.2072C21.5231 14.4258 18.7576 13.6444 15.6314 13.6444C6.13259 13.6444 0 20.1965 0 29.1526C0 38.0489 5.71176 43.9995 14.4891 43.9995C18.3969 43.9995 21.4634 42.9777 22.8461 42.3165L21.9443 38.3494C20.4414 39.0106 18.4574 39.7319 15.451 39.7319C9.67961 39.7319 5.35105 35.5845 5.35105 28.852C5.35059 22.8408 8.95773 17.8519 15.6309 17.8519Z" fill="#006DA8"/>
<path d="M113.383 14.2459H108.092V43.3388H113.383V14.2459Z" fill="#006DA8"/>
<path d="M133.342 17.8519C136.228 17.8519 138.212 18.5732 139.475 19.2344L140.677 15.2072C139.234 14.4258 136.469 13.6444 133.343 13.6444C123.844 13.6444 117.711 20.1965 117.711 29.1526C117.711 38.0489 123.423 43.9995 132.2 43.9995C136.108 43.9995 139.175 42.9777 140.557 42.3165L139.655 38.3494C138.153 39.0106 136.169 39.7319 133.162 39.7319C127.391 39.7319 123.062 35.5845 123.062 28.852C123.062 22.8408 126.669 17.8519 133.342 17.8519Z" fill="#006DA8"/>
<path d="M147.89 1.20169C144.945 1.20169 143.021 3.18524 143.021 5.76986C143.021 8.29437 144.884 10.338 147.77 10.338C150.836 10.338 152.7 8.29437 152.7 5.76986C152.64 3.18524 150.837 1.20169 147.89 1.20169Z" fill="#B22326"/>
<path d="M152.399 13.9449H143.261V43.3384H152.399V13.9449Z" fill="#B22326"/>
<path d="M185.284 43.3383V25.9668C185.284 17.3114 180.775 13.2837 174.763 13.2837C169.833 13.2837 166.888 16.1088 165.685 18.0322H165.504L165.084 13.9449H157.148C157.268 16.5896 157.388 19.6556 157.388 23.3221V43.3383H166.526V26.388C166.526 25.5461 166.587 24.705 166.827 24.1035C167.488 22.4205 168.991 20.6774 171.516 20.6774C174.823 20.6774 176.145 23.2625 176.145 27.0488V43.3383H185.284Z" fill="#B22326"/>
<path d="M195.023 2.94526C192.438 5.34956 191.356 9.25654 191.356 12.8029V13.9449H187.448V20.677H191.356V43.3384H200.494V20.6774H206.326V13.9449H200.434V12.4422C200.434 9.55708 201.696 7.21289 204.702 7.21289C205.905 7.21289 206.867 7.39321 207.648 7.63364L208.009 0.601074C206.746 0.300537 205.183 1.98774e-07 203.199 1.98774e-07C200.494 -0.000455161 197.368 0.781396 195.023 2.94526Z" fill="#B22326"/>
<path d="M221.355 43.9995C229.23 43.9995 236.866 39.0707 236.866 28.311C236.866 19.4147 230.854 13.2236 221.896 13.2236C212.397 13.2236 206.144 19.2945 206.144 28.852C206.144 38.3494 212.757 43.9995 221.355 43.9995ZM221.595 19.7758C225.744 19.7758 227.427 24.2237 227.427 28.5519C227.427 33.9015 225.203 37.4478 221.595 37.4478C217.688 37.4478 215.583 33.6611 215.583 28.612C215.583 24.2839 217.267 19.7758 221.595 19.7758Z" fill="#B22326"/>
<path d="M249.25 43.3384V28.4313C249.25 27.71 249.31 26.9887 249.43 26.3881C250.031 23.5626 252.316 21.7593 255.683 21.7593C256.705 21.7593 257.426 21.88 258.148 21.9998V13.404C257.486 13.2837 257.066 13.2236 256.224 13.2236C253.338 13.2236 249.791 15.0269 248.288 19.3546H248.047L247.687 13.9449H239.871C240.051 16.4694 240.111 19.2945 240.111 23.6227V43.3384H249.25Z" fill="#B22326"/>
<path d="M305.101 43.3384V26.0274C305.101 17.1912 300.832 13.2241 295.181 13.2241C293.016 13.2241 291.213 13.7651 289.589 14.6667C288.147 15.5082 286.885 16.7103 285.742 18.2731H285.622C284.359 15.2076 281.413 13.2241 277.566 13.2241C272.576 13.2241 269.93 15.989 268.668 17.9125H268.488L268.127 13.9454H260.372C260.492 16.5901 260.612 19.656 260.612 23.3226V43.3388H269.51V26.2073C269.51 25.4259 269.57 24.5844 269.87 23.8631C270.412 22.4205 271.794 20.6173 274.139 20.6173C277.085 20.6173 278.407 23.1418 278.407 26.8088V43.3388H287.305V26.1472C287.305 25.3658 287.426 24.4642 287.606 23.803C288.267 22.0599 289.71 20.6173 291.874 20.6173C294.82 20.6173 296.203 23.0817 296.203 27.3493V43.3384H305.101Z" fill="#B22326"/>
<path d="M308.044 34.9834C308.044 39.6723 311.591 44 317.543 44C321.03 44 324.036 42.7377 325.96 40.3936H326.14L326.681 43.3388H334.918C334.557 41.7159 334.436 39.0111 334.436 36.2461V25.9669C334.436 18.9944 331.371 13.2241 321.571 13.2241C316.22 13.2241 312.192 14.7268 310.148 15.8688L311.831 21.7593C313.755 20.5572 316.941 19.5354 319.947 19.5354C324.456 19.5354 325.298 21.7593 325.298 23.3822V23.7429C314.898 23.7429 308.044 27.3493 308.044 34.9834ZM325.599 29.4531V32.6388C325.599 33.1798 325.539 33.7212 325.419 34.202C324.818 36.0654 322.894 37.5681 320.669 37.5681C318.625 37.5681 317.062 36.426 317.062 34.0823C317.062 30.5956 320.789 29.4531 325.599 29.4531Z" fill="#B22326"/>
<path d="M367.742 13.9449H358.603V43.3384H367.742V13.9449Z" fill="#B22326"/>
<path d="M340.148 8.47515V13.9449H336.24V20.677H340.148V32.6989C340.148 36.8458 340.989 39.6718 342.673 41.4149C344.176 42.9176 346.641 43.9394 349.587 43.9394C352.112 43.9394 354.337 43.5788 355.479 43.1576L355.419 36.2452C354.577 36.4256 353.976 36.4852 352.713 36.4852C350.008 36.4852 349.106 34.8628 349.106 31.316V20.6774H355.659V13.9449H349.106V6.01074L340.148 8.47515Z" fill="#B22326"/>
<path d="M363.233 1.20169C360.287 1.20169 358.363 3.18524 358.363 5.76986C358.363 8.29437 360.227 10.338 363.113 10.338C366.179 10.338 368.042 8.29437 368.042 5.76986C367.982 3.18524 366.179 1.20169 363.233 1.20169Z" fill="#B22326"/>
<path d="M388.302 20.3167C390.707 20.3167 392.331 20.7375 393.413 21.2184L394.856 14.4258C392.931 13.7045 390.286 13.2837 387.881 13.2837C376.94 13.2837 371.047 20.3163 371.047 28.9121C371.047 38.1085 377.119 43.9394 386.618 43.9394C390.105 43.9394 393.172 43.3383 394.795 42.5569L393.712 35.8249C392.33 36.4255 390.647 36.7862 388.482 36.7862C384.033 36.7862 380.426 33.901 380.426 28.5515C380.366 23.7429 383.492 20.3167 388.302 20.3167Z" fill="#B22326"/>
<path d="M410.064 25.3658C406.457 24.1035 405.315 23.3822 405.315 21.9397C405.315 20.4971 406.577 19.5955 408.802 19.5955C411.267 19.5955 413.852 20.5572 415.174 21.2785L416.738 14.9672C414.934 14.0656 411.928 13.2241 408.501 13.2241C401.226 13.2241 396.537 17.3715 396.537 22.9018C396.477 26.3881 398.822 29.694 404.954 31.7376C408.32 32.8797 409.222 33.601 409.222 35.1638C409.222 36.6664 408.08 37.5676 405.314 37.5676C402.609 37.5676 399.122 36.4256 397.438 35.4037L395.816 41.8958C398.04 43.0979 401.467 43.9995 405.314 43.9995C413.731 43.9995 418 39.9719 418 34.4425C417.94 30.1744 415.655 27.2892 410.064 25.3658Z" fill="#B22326"/>
</svg>
