<svg width="435" height="445" viewBox="0 0 435 445" fill="none" xmlns="http://www.w3.org/2000/svg">
    <g style="mix-blend-mode:multiply">
        <path
            d="M77.182 441.57C77.182 443.461 60.3404 445 39.5626 445C18.7847 445 1.94318 443.468 1.94318 441.57C1.94318 439.679 18.7847 438.14 39.5626 438.14C60.3404 438.14 77.182 439.672 77.182 441.57Z"
            fill="#EBF3F9" />
    </g>
    <path
        d="M251.2 39.0943C267.191 59.591 276.104 85.746 291.427 106.847C305.148 125.741 323.908 140.151 344.763 147.791C358.646 152.88 373.315 155.01 387.198 160.092C401.087 165.174 414.751 173.939 421.584 188.18C428.683 202.976 455.899 262.147 397.305 313.627C376.464 331.938 351.279 340.795 327.563 353.475C287.983 374.639 257.547 413.882 216.434 431.167C185.092 444.346 149.005 443.236 118.379 428.144C87.7536 413.053 62.9692 384.171 51.0339 349.665C30.5724 290.53 83.8103 227.796 72.5639 166.538C53.7893 64.2583 97.7348 32.3816 117.838 17.2973C158.719 -13.3704 219.52 -1.5124 251.207 39.0943H251.2Z"
        fill="#E1F1F4" />
    <path
        d="M156.055 224.485C156.413 224.97 157.151 225.209 158.262 225.202C161.987 225.652 162.191 217.47 160.94 215.804C160.103 214.694 158.972 214.961 157.552 216.62L158.009 213.196C159.738 212.163 161.073 212.051 162.015 212.859C163.435 214.075 164.201 215.987 164.068 220.408C163.927 224.83 159.928 230.959 155.324 227.388L156.069 224.485H156.055Z"
        fill="#90AFF1" />
    <path
        d="M156.055 224.485C156.413 224.97 157.151 225.209 158.262 225.202C161.987 225.652 162.191 217.47 160.94 215.804C160.103 214.694 158.972 214.961 157.552 216.62L158.009 213.196C159.738 212.163 161.073 212.051 162.015 212.859C163.435 214.075 164.201 215.987 164.068 220.408C163.927 224.83 159.928 230.959 155.324 227.388L156.069 224.485H156.055Z"
        fill="#E08A30" />
    <path
        d="M158.402 210.188C158.367 213.808 157.369 221.962 155.577 228.759C153.791 235.549 152.702 236.652 149.476 237.313C147.325 237.756 144.815 237.967 141.94 237.939C137.688 238.374 135.256 237.447 134.644 235.141C132.205 229.279 130.842 221.027 130.56 210.378C130.624 210.406 130.701 210.448 130.792 210.49C130.708 210.448 130.638 210.406 130.582 210.378L158.395 210.188H158.402Z"
        fill="#FFB162" />
    <path d="M233.086 155.165H110.549V44.0357H233.086V155.165Z" fill="#96CDD7" />
    <path d="M170.471 44.0357V155.165" stroke="white" strokeWidth="2.2" />
    <path d="M110.549 99.6003H233.086" stroke="white" strokeWidth="2.2" />
    <path
        d="M262.685 95.4812C263.683 91.0178 264.759 86.8074 268.688 84.1786C272.28 81.7746 276.511 80.5164 280.609 79.2934C282.12 78.8435 283.632 78.3937 285.136 77.9438C287.554 77.2198 289.986 76.5029 292.488 76.2147C303.341 74.9846 313.843 82.5619 318.629 92.3744C323.423 102.194 323.416 113.708 321.567 124.469C321.265 126.247 320.907 128.061 321.167 129.853C321.82 134.443 326.108 137.452 329.644 140.446C333.692 143.876 337.228 148.03 339.316 152.908C341.403 157.787 341.945 163.438 340.166 168.436C339.681 169.806 338.992 171.149 337.882 172.084C336.441 173.3 334.452 173.672 332.561 173.623C326.354 173.475 320.977 169.455 315.066 167.55C304.606 164.176 293.304 167.578 282.816 170.889C279.977 171.788 276.961 172.688 274.058 171.985C270.691 171.177 268.126 168.281 266.832 165.069C265.539 161.856 265.314 158.321 265.173 154.863C265.033 151.257 264.977 147.566 266.158 144.157C267.036 141.634 268.583 139.328 269.039 136.692C269.841 132.074 267.198 127.667 265.307 123.379C261.469 114.685 260.598 104.746 262.678 95.4812H262.685Z"
        fill="#292929" />
    <path d="M106.922 440.909H93.3768V251.188H106.922V440.909Z" fill="#62B5C3" />
    <path d="M371.052 440.909H357.507V251.188H371.052V440.909Z" fill="#62B5C3" />
    <path
        d="M262.727 270.638C263.515 235.865 266.235 204.755 270.895 177.299C276.237 146.421 300.424 149.703 309.428 149.823C311.924 149.858 315.888 150.786 318.236 151.629C344.798 161.21 351.117 206.786 337.186 288.351L262.734 270.638H262.727Z"
        fill="#FFDC75" />
    <path
        d="M332.666 300.125C333.039 304.799 333.299 309.473 333.622 314.155L334.402 328.191C334.923 337.547 335.26 346.91 335.703 356.272C336.026 365.635 336.371 374.998 336.624 384.368L336.933 398.419C336.968 403.107 337.073 407.788 337.059 412.477C337.059 413.201 336.469 413.791 335.738 413.784C335.049 413.784 334.487 413.25 334.431 412.575C334.058 407.901 333.805 403.226 333.482 398.545L332.722 384.508C332.259 375.152 331.886 365.79 331.499 356.427C331.225 347.064 330.853 337.702 330.656 328.332L330.368 314.281C330.333 309.593 330.241 304.911 330.255 300.223C330.255 299.555 330.797 299.021 331.464 299.021C332.097 299.021 332.61 299.513 332.659 300.132L332.666 300.125Z"
        fill="#D6AD4A" />
    <path
        d="M273.714 302.704C273.995 307.273 274.178 311.849 274.41 316.418L274.93 330.139C275.274 339.283 275.443 348.435 275.703 357.58C275.858 366.732 276.026 375.876 276.097 385.028L276.146 398.756C276.097 403.332 276.111 407.908 276.005 412.491C275.991 413.215 275.387 413.791 274.663 413.777C273.974 413.763 273.426 413.215 273.376 412.547C273.095 407.978 272.926 403.402 272.695 398.833L272.195 385.113C271.907 375.968 271.71 366.816 271.5 357.671C271.401 348.519 271.204 339.375 271.183 330.223L271.162 316.495C271.211 311.919 271.211 307.343 271.31 302.76C271.324 302.093 271.872 301.566 272.54 301.587C273.172 301.601 273.679 302.1 273.714 302.718V302.704Z"
        fill="#D6AD4A" />
    <path
        d="M303.671 302.732C303.861 306.423 303.953 310.113 304.093 313.803L304.339 324.874C304.501 332.254 304.487 339.635 304.571 347.008C304.585 354.389 304.557 361.769 304.417 369.15L304.192 380.22C304.051 383.911 303.974 387.601 303.784 391.291C303.749 392.015 303.13 392.577 302.399 392.535C301.724 392.5 301.19 391.952 301.155 391.291C300.965 387.601 300.888 383.911 300.747 380.22L300.522 369.15C300.382 361.769 300.361 354.389 300.368 347.008C300.452 339.628 300.438 332.247 300.6 324.874L300.846 313.803C300.986 310.113 301.071 306.423 301.268 302.732C301.303 302.065 301.872 301.558 302.533 301.594C303.151 301.629 303.636 302.128 303.671 302.732Z"
        fill="#D6AD4A" />
    <path
        d="M233.852 291.359C233.465 296.245 232.98 301.116 232.545 305.994L231.069 320.614C230.078 330.356 228.911 340.085 227.842 349.82C226.661 359.541 225.502 369.262 224.243 378.976L222.296 393.54C221.579 398.383 220.933 403.24 220.167 408.083C220.054 408.8 219.379 409.292 218.662 409.173C217.981 409.068 217.51 408.449 217.559 407.774C217.945 402.889 218.437 398.018 218.873 393.14L220.377 378.526C221.418 368.791 222.556 359.063 223.674 349.335C224.904 339.621 226.043 329.893 227.35 320.185L229.325 305.628C230.042 300.785 230.703 295.928 231.469 291.092C231.575 290.439 232.186 289.989 232.847 290.094C233.473 290.193 233.908 290.762 233.859 291.38L233.852 291.359Z"
        fill="#D6AD4A" />
    <path
        d="M337.657 291.732C337.657 305.741 313.35 317.1 283.365 317.1C253.379 317.1 229.072 305.741 229.072 291.732C229.072 277.723 253.379 266.364 283.365 266.364C313.35 266.364 337.657 277.723 337.657 291.732Z"
        fill="#FFDC75" />
    <g style="mix-blend-mode:multiply" opacity="0.9">
        <path
            d="M287.209 305.677C315.579 304.623 332.237 298.852 337.179 288.358C337.495 289.461 337.657 290.593 337.657 291.739C337.657 305.748 313.35 317.107 283.365 317.107C256.633 317.107 234.414 308.081 229.902 296.195C239.7 303.569 258.805 306.732 287.209 305.677Z"
            fill="#EDEEED" />
    </g>
    <path
        d="M270.825 167.227C269.77 175.563 267.802 183.752 265.834 191.927C265.033 195.265 263.922 199.005 260.858 200.544C254.89 196.559 249.147 192.257 243.173 188.272C249.829 174.354 259.719 162.004 271.837 152.459C271.83 157.182 271.415 162.545 270.818 167.234L270.825 167.227Z"
        fill="#FFB162" />
    <path
        d="M292.552 407.219C292.678 406.389 293.339 405.715 294.196 405.567C297.071 405.061 303.489 405.195 306.61 415.26C309.892 424.897 311.34 431.947 310.961 436.403C310.799 438.259 308.24 438.828 307.186 437.275C304.733 433.655 299.545 426.183 291.806 415.914C291.49 415.492 291.35 414.965 291.434 414.452L292.559 407.219H292.552Z"
        fill="#3C3C3B" />
    <path d="M292.228 416.518L305.949 435.455C304.431 424.426 299.855 418.114 292.228 416.518Z" fill="#F7C5B4" />
    <path
        d="M283.421 406.214C288.833 409.721 292.861 412.751 293.276 414.213C294.182 417.432 294.738 424.496 294.941 435.384C295.04 439.285 293.985 441.127 291.764 440.895C289.543 440.663 285.101 432.165 278.437 415.401L283.421 406.207V406.214Z"
        fill="#3C3C3B" />
    <path
        d="M278.43 416.785L282.071 410.038C288.285 417.453 290.281 426.239 288.046 436.382C282.191 426.289 278.986 419.759 278.43 416.785Z"
        fill="#F7C5B4" />
    <path
        d="M321.856 289.834C305.365 311.898 269.053 319.166 243.173 334.096C272.547 360.912 290.52 384.712 297.099 405.497L291.406 415.879C254.405 389.485 232.973 374.66 227.125 371.392C218.515 366.584 199.825 352.118 200.949 335.382L200.886 335.438C195.952 329.154 196.774 319.082 203.353 305.228C212.238 286.523 238.976 255.23 281.045 234.431L315.635 236.484C331.134 256.868 333.214 274.651 321.863 289.834H321.856Z"
        fill="#656DAE" />
    <path
        d="M201.019 334.426C201.364 331.769 202.474 329.274 203.712 326.926C204.949 324.557 206.369 322.287 207.873 320.08C210.909 315.68 214.255 311.505 217.735 307.456C224.714 299.365 232.327 291.844 240.263 284.703C248.248 277.618 256.633 270.947 265.511 265C274.424 259.18 283.864 253.768 294.26 251.195C289.114 252.608 284.236 254.829 279.562 257.346C274.867 259.848 270.354 262.674 265.968 265.675C257.224 271.734 248.873 278.363 240.965 285.49C232.995 292.547 225.424 300.047 218.339 307.99C214.796 311.961 211.394 316.059 208.287 320.375C206.72 322.519 205.244 324.74 203.937 327.053C202.629 329.358 201.448 331.79 201.019 334.433V334.426Z"
        fill="#3C3C3B" />
    <path
        d="M278.43 419.063C275.366 416.673 262.819 403.775 240.783 380.368C259.002 390.195 273.84 398.847 285.305 406.312L278.43 419.063Z"
        fill="#656DAE" />
    <path
        d="M297.943 148.818C313.927 150.568 324.541 156.81 329.798 167.536C333.903 175.914 335.956 191.765 335.829 205.689C332.252 205.689 325.672 205.696 316.085 205.696C315.761 200.734 316.036 204.459 316.893 216.887C318.51 230.277 319.726 239.098 320.541 243.351C318.088 242.543 315.705 242.374 313.133 242.17C309.794 241.91 306.504 241.692 303.215 242.304C295.841 243.681 288.306 245.235 280.82 245.79C278.578 245.959 267.451 246.142 265.321 242.775C264.119 225.905 261.975 210.047 258.89 195.202C257.181 186.978 260.267 166.777 264.239 160.071C268.273 153.26 273.925 149.506 281.193 148.818"
        fill="#FFB162" />
    <g style="mix-blend-mode:multiply" opacity="0.8">
        <path
            d="M295.047 239.689C300.037 237.594 305.035 234.769 307.861 230.151C312.064 223.283 311.01 213.541 316.225 207.405C316.408 209.963 316.626 213.119 316.886 216.887C318.503 230.277 319.719 239.098 320.534 243.351C318.081 242.543 315.698 242.374 313.126 242.17C309.787 241.91 306.497 241.692 303.208 242.304C295.834 243.681 288.299 245.235 280.813 245.79C279.478 245.889 274.979 245.994 271.113 245.347C279.33 244.694 287.441 242.873 295.04 239.682L295.047 239.689Z"
            fill="#D0E4F1" />
    </g>
    <path
        d="M269.053 154.321C267.584 155.769 266.27 157.351 265.187 159.073C264.063 160.774 263.29 162.644 262.657 164.591C262.327 165.554 262.017 166.531 261.736 167.515C261.455 168.485 261.293 169.518 261.033 170.509C260.562 172.512 260.077 174.509 259.515 176.498C259.789 174.452 260.141 172.421 260.506 170.39C260.83 168.358 261.336 166.334 261.989 164.366C262.678 162.426 263.486 160.451 264.738 158.771C265.94 157.07 267.395 155.551 269.053 154.321Z"
        fill="#3C3C3B" />
    <path
        d="M300.501 138.133L300.691 149.183C303.011 149.401 305.387 150.034 307.84 151.074C294.808 156.774 284.032 156.542 275.52 150.392C277.263 149.457 279.534 148.881 282.338 148.684L283.322 137.395L300.501 138.14V138.133Z"
        fill="#F7C5B4" />
    <path
        d="M227.125 371.392C232.826 374.569 238.224 378.238 243.658 381.83C249.077 385.45 254.419 389.182 259.782 392.88C265.096 396.647 270.424 400.401 275.696 404.232C280.968 408.062 286.225 411.914 291.406 415.872C285.972 412.273 280.602 408.583 275.232 404.892L259.178 393.744L243.201 382.498L235.209 376.882C232.545 375.012 229.881 373.135 227.125 371.392Z"
        fill="#3C3C3B" />
    <path
        d="M314.37 184.722C314.925 188.194 315.276 191.688 315.572 195.181C315.846 198.682 316.064 202.182 316.078 205.696C315.515 202.217 315.171 198.731 314.876 195.237C314.609 191.744 314.384 188.243 314.37 184.722Z"
        fill="#3C3C3B" />
    <path
        d="M281.931 232.098C279.956 231.929 278.079 231.149 276.118 230.931C274.522 230.755 272.765 230.917 271.45 229.989C270.312 229.188 269.799 227.669 270.031 226.292C270.262 224.921 271.155 223.712 272.301 222.918C274.62 221.308 277.664 221.35 280.483 221.449C282.795 221.533 285.93 221.863 288.236 221.948C297.788 220.176 307.664 218.271 315.628 212.704C316.275 212.255 316.661 211.221 316.289 210.532C316.394 209.478 316.26 206.547 316.036 203.04L335.78 203.033C335.661 215.853 333.685 227.044 329.749 229.251C326.945 231.17 323.212 231.999 318.559 231.739C308.444 233.546 297.388 233.693 287.413 231.24C285.544 231.662 283.843 232.259 281.938 232.091L281.931 232.098Z"
        fill="#F7C5B4" />
    <path
        d="M275.682 251.034C276.469 251.912 276.968 253.009 277.277 254.141C277.559 255.279 277.657 256.474 277.397 257.634C277.102 256.495 276.891 255.406 276.596 254.323C276.329 253.234 275.984 252.18 275.682 251.041V251.034Z"
        fill="#3C3C3B" />
    <path
        d="M313.716 93.8224C315.375 103.501 313.449 118.073 311.284 125.72C310.405 128.827 309.456 132.046 307.418 134.549C297.331 146.927 284.152 142.815 279.836 139.898C276.448 137.613 273.77 134.499 272.245 130.711C268.351 121.039 266.832 110.425 267.873 100.05C268.47 84.3543 276.926 77.1706 293.24 78.4921C305.042 77.9368 311.867 83.0469 313.716 93.8224Z"
        fill="#F7C5B4" />
    <path
        d="M300.635 143.3C295.806 144.537 291.771 144.382 288.538 142.843C293.395 143.377 297.43 142.569 300.635 140.404V143.3Z"
        fill="#292929" />
    <path
        d="M291.497 74.8018C297.978 74.5699 304.951 76.3271 309.85 80.7414C314.876 85.2681 317.223 92.1003 318.172 98.799C318.629 102.004 318.798 105.308 318.018 108.45C317.406 110.91 315.747 113.532 313.217 113.651C310.778 113.764 308.894 111.444 308.135 109.125C307.376 106.805 307.291 104.268 306.23 102.074C305.253 100.05 303.44 98.4405 301.317 97.7024C298.702 96.7887 295.82 97.1823 293.1 96.6481C288.531 95.7484 284.658 91.9808 283.625 87.44C282.317 81.6903 285.269 75.0197 291.497 74.8018Z"
        fill="#292929" />
    <path
        d="M312.289 115.022C313.14 114.073 314.686 112.351 315.579 111.908C316.478 111.465 317.645 111.416 318.418 112.063C318.882 112.449 319.142 113.026 319.297 113.609C319.916 115.95 319.002 118.466 317.554 120.406C317.006 121.144 316.338 121.847 315.473 122.156C314.363 122.55 313.02 122.156 312.289 121.229V115.029V115.022Z"
        fill="#F7C5B4" />
    <path
        d="M317.23 114.186C316.275 114.663 315.382 115.261 314.672 116.048C313.913 116.793 313.357 117.707 312.922 118.677C312.887 118.754 312.795 118.79 312.718 118.754C312.648 118.719 312.612 118.642 312.633 118.572C312.929 117.489 313.568 116.526 314.32 115.704C315.122 114.924 316.064 114.256 317.132 113.925C317.209 113.904 317.287 113.947 317.308 114.017C317.329 114.087 317.294 114.157 317.238 114.186H317.23Z"
        fill="#DA806C" />
    <path
        d="M314.342 116.168C314.883 116.702 315.206 117.419 315.431 118.143C315.593 118.881 315.649 119.668 315.431 120.399C315.403 120.484 315.319 120.526 315.234 120.505C315.164 120.484 315.122 120.413 315.122 120.343C315.164 119.64 315.15 118.937 314.946 118.262C314.805 117.573 314.489 116.948 314.117 116.343C314.074 116.28 314.096 116.189 314.159 116.147C314.215 116.111 314.292 116.118 314.335 116.168H314.342Z"
        fill="#DA806C" />
    <path
        d="M289.114 123.443C289.866 123.344 290.576 123.056 291.033 122.48C291.553 121.96 291.785 121.236 291.919 120.484C291.933 120.378 292.031 120.308 292.137 120.322C292.221 120.336 292.291 120.413 292.299 120.491C292.376 121.334 292.052 122.213 291.483 122.887C290.872 123.513 289.972 123.9 289.121 123.787C289.023 123.773 288.96 123.689 288.974 123.59C288.981 123.513 289.051 123.45 289.121 123.443H289.114Z"
        fill="#3C3C3B" />
    <path
        d="M286.232 111.711C286.731 111.599 287.371 111.725 287.694 112.007C287.919 112.203 287.99 112.442 288.053 112.681C288.679 115.036 288.953 117.419 288.875 119.781C288.868 119.9 288.861 120.034 288.756 120.132C288.573 120.294 288.194 120.308 287.863 120.308C287.245 120.301 286.619 120.294 286 120.287C285.593 120.28 285.094 120.245 284.897 120.013C284.806 119.9 284.813 119.774 284.82 119.654C285.002 117.222 284.77 114.748 285.368 112.358C285.452 112.021 285.74 111.803 286.232 111.711Z"
        fill="#E89B8D" />
    <path
        d="M286.682 86.3997C285.916 87.5525 285.059 88.6631 283.983 89.5347C282.24 90.9546 280.033 91.6785 278.156 92.9157C276.947 93.7099 275.893 94.7081 274.845 95.7062C272.849 97.604 270.832 99.5229 269.335 101.835C267.837 104.148 266.889 106.925 267.254 109.652C266.059 108.464 265.244 106.91 264.801 105.28C257.498 78.3585 283.751 73.6702 286.971 75.814C290.541 78.1969 288.489 83.6514 286.675 86.3857L286.682 86.3997Z"
        fill="#292929" />
    <path
        d="M299.672 117.025C299.538 117.749 298.843 118.234 298.119 118.101C297.395 117.967 296.917 117.271 297.043 116.547C297.177 115.823 297.873 115.338 298.597 115.472C299.321 115.605 299.806 116.301 299.672 117.025Z"
        fill="#3C3C3B" />
    <path
        d="M277.383 117.004C277.249 117.728 276.553 118.213 275.829 118.08C275.105 117.946 274.628 117.25 274.754 116.526C274.888 115.802 275.583 115.317 276.307 115.451C277.031 115.584 277.509 116.28 277.383 117.004Z"
        fill="#3C3C3B" />
    <path
        d="M295.209 112.105C297.788 110.938 301.085 111.381 303.25 113.237C303.39 113.356 303.404 113.567 303.285 113.708C303.179 113.827 303.011 113.855 302.877 113.785C300.572 112.576 297.971 112.175 295.398 112.681C295.237 112.716 295.075 112.611 295.04 112.442C295.012 112.302 295.089 112.161 295.216 112.105H295.209Z"
        fill="#3C3C3B" />
    <path
        d="M280.005 112.962C277.559 112.014 274.937 111.964 272.448 112.752C272.273 112.808 272.083 112.716 272.027 112.541C271.978 112.393 272.041 112.231 272.174 112.154C274.62 110.699 277.952 110.84 280.286 112.435C280.426 112.527 280.462 112.716 280.363 112.857C280.279 112.977 280.124 113.019 279.998 112.969L280.005 112.962Z"
        fill="#3C3C3B" />
    <path d="M386.776 254.33H82.1234V236.231H386.776V254.33Z" fill="#62B5C3" />
    <path
        d="M396.145 78.3726C396.145 95.9733 381.877 110.242 364.276 110.242C346.675 110.242 332.406 95.9733 332.406 78.3726C332.406 60.7719 346.675 46.5029 364.276 46.5029C381.877 46.5029 396.145 60.7719 396.145 78.3726Z"
        fill="#474F86" />
    <path
        d="M394.332 78.3726C394.332 94.7924 381.019 108.105 364.599 108.105C348.179 108.105 334.866 94.7924 334.866 78.3726C334.866 61.9528 348.179 48.6398 364.599 48.6398C381.019 48.6398 394.332 61.9528 394.332 78.3726Z"
        fill="#656DAE" />
    <path
        d="M365.808 78.9349C365.808 79.7784 365.126 80.4602 364.283 80.4602C363.439 80.4602 362.758 79.7784 362.758 78.9349C362.758 78.0914 363.439 77.4096 364.283 77.4096C365.126 77.4096 365.808 78.0914 365.808 78.9349Z"
        fill="white" />
    <path
        d="M363.847 77.4096C363.784 76.9457 363.728 76.3693 363.671 75.6805C363.594 74.6402 363.531 73.2555 363.524 71.8707C363.517 70.486 363.559 69.1013 363.636 68.061C363.685 67.3651 363.742 66.7887 363.805 66.3319C363.84 66.0718 364.079 65.889 364.339 65.9242C364.557 65.9523 364.719 66.121 364.747 66.3319C364.81 66.7958 364.866 67.3722 364.915 68.061C364.993 69.1013 365.035 70.486 365.028 71.8707C365.021 73.2555 364.965 74.6402 364.88 75.6805C364.824 76.3763 364.768 76.9527 364.705 77.4096C364.669 77.6486 364.452 77.8103 364.22 77.7822C364.023 77.754 363.875 77.5994 363.847 77.4096Z"
        fill="white" />
    <path
        d="M365.696 79.6027C365.815 79.68 365.977 79.7854 366.181 79.919C366.483 80.1298 366.926 80.411 367.432 80.7835C367.938 81.1561 368.542 81.5778 369.168 82.0488C369.794 82.5197 370.454 83.0399 371.108 83.553C371.762 84.0802 372.408 84.6073 373.006 85.1134C373.61 85.6125 374.145 86.1186 374.616 86.5263C375.241 87.0886 375.747 87.5666 376.141 87.9672C376.324 88.157 376.324 88.4522 376.134 88.635C375.972 88.7896 375.733 88.8107 375.55 88.6982C375.072 88.396 374.496 88.0024 373.814 87.5174C373.308 87.1448 372.704 86.7231 372.085 86.2451C371.459 85.7742 370.806 85.247 370.152 84.7198C369.505 84.1856 368.859 83.6584 368.268 83.1453C367.671 82.6322 367.137 82.1331 366.666 81.7184C366.195 81.3037 365.829 80.9241 365.555 80.6781C365.379 80.5024 365.246 80.3688 365.147 80.2704C364.979 80.1017 364.979 79.8276 365.147 79.6589C365.295 79.5113 365.52 79.4902 365.689 79.6027H365.696Z"
        fill="white" />
    <path d="M365.808 66.3248H362.75L364.276 64.2934L365.801 66.3248H365.808Z" fill="white" />
    <path d="M374.58 89.3941L376.267 86.8496L377.111 89.2465L374.573 89.4011L374.58 89.3941Z" fill="white" />
    <path
        d="M364.234 54.9518C365.443 54.9518 365.45 53.0681 364.234 53.0681C363.025 53.0681 363.018 54.9518 364.234 54.9518Z"
        fill="white" />
    <path
        d="M389.749 79.3496C390.958 79.3496 390.965 77.4658 389.749 77.4658C388.54 77.4658 388.533 79.3496 389.749 79.3496Z"
        fill="white" />
    <path
        d="M339.674 78.8716C340.883 78.8716 340.89 76.9879 339.674 76.9879C338.465 76.9879 338.458 78.8716 339.674 78.8716Z"
        fill="white" />
    <path
        d="M364.951 104.387C366.16 104.387 366.167 102.503 364.951 102.503C363.742 102.503 363.735 104.387 364.951 104.387Z"
        fill="white" />
    <path
        d="M69.1126 281.61C72.7396 282.215 75.1505 286.172 75.2349 289.848C75.3192 293.524 73.6182 296.969 72.2054 300.364C70.7925 303.759 69.6327 307.575 70.7996 311.062C72.0226 314.696 75.6847 317.732 75.0662 321.514C74.5952 324.424 71.7907 326.244 69.443 328.03C67.0953 329.815 64.7827 332.648 65.809 335.41C66.1463 336.317 66.8071 337.062 67.3061 337.899C68.5573 339.993 68.7119 342.706 67.6998 344.928C66.8422 346.804 65.2677 348.238 63.7354 349.623C58.1403 354.663 52.5381 359.703 46.943 364.742C44.1806 358.051 41.4252 351.359 38.6628 344.668C37.011 340.668 35.3311 336.38 36.1253 332.128C36.9196 327.875 41.3198 324.009 45.3966 325.464C46.4791 321.591 44.3774 317.648 43.3512 313.761C42.3249 309.874 43.2598 304.546 47.189 303.716C48.8479 303.365 50.6825 303.962 52.2218 303.238C54.675 302.086 54.6609 298.698 54.9139 295.998C55.5184 289.616 58.8924 282.285 65.0779 281.188C66.6805 281.294 68.0231 281.434 69.1056 281.617L69.1126 281.61Z"
        fill="#91CCA2" />
    <path
        d="M46.1979 379.581C46.3596 371.877 46.9641 364.18 48.0466 356.547C49.0798 348.913 50.4856 341.322 52.1796 333.808C53.8596 326.287 55.8347 318.836 57.9997 311.441C60.1927 304.061 62.5194 296.722 65.1834 289.497C65.2466 289.335 65.4223 289.251 65.584 289.307C65.7387 289.363 65.823 289.525 65.7808 289.679C63.8268 297.13 61.5564 304.476 59.4125 311.856C57.2406 319.222 55.1389 326.617 53.2832 334.068C51.4416 341.526 49.846 349.04 48.7073 356.638C47.6178 364.236 46.8868 371.905 46.8306 379.581C46.8306 379.756 46.69 379.897 46.5142 379.89C46.3385 379.89 46.1979 379.749 46.205 379.574V379.567L46.1979 379.581Z"
        fill="#3C3C3B" />
    <path
        d="M48.6652 351.907C46.4932 349.328 44.6727 346.467 43.049 343.508C41.4745 340.52 40.0827 337.428 39.1338 334.187C39.0635 333.941 39.2041 333.681 39.4501 333.611C39.6751 333.548 39.907 333.66 39.9984 333.864C41.3901 336.886 42.7678 339.895 44.3494 342.805C45.8817 345.743 47.6038 348.569 49.354 351.401C49.4735 351.598 49.4173 351.865 49.2135 351.985C49.0307 352.097 48.7987 352.055 48.6652 351.893V351.907Z"
        fill="#3C3C3B" />
    <path
        d="M49.9725 346.959C51.1042 346.727 52.2078 346.369 53.3254 345.982C54.436 345.581 55.5887 345.216 56.7204 344.829C59.0119 344.126 61.2963 343.416 63.6581 342.924C63.9111 342.875 64.1571 343.037 64.2063 343.283C64.2485 343.501 64.136 343.719 63.9392 343.803C61.7321 344.759 59.4477 345.49 57.1703 346.235C56.0175 346.565 54.8858 346.938 53.712 347.24C52.5381 347.542 51.308 347.803 50.0569 347.803C49.8249 347.803 49.6281 347.613 49.6351 347.374C49.6351 347.17 49.7827 346.994 49.9796 346.959H49.9725Z"
        fill="#3C3C3B" />
    <path
        d="M54.7593 324.825C53.1075 322.779 51.7649 320.502 50.5559 318.168C49.4102 315.806 48.391 313.367 47.7584 310.809C47.6951 310.563 47.8498 310.31 48.0958 310.246C48.3137 310.19 48.5386 310.303 48.63 310.506C49.7125 312.861 50.7176 315.223 51.8774 317.514C52.988 319.834 54.2392 322.076 55.4622 324.361C55.5747 324.565 55.4974 324.825 55.2865 324.937C55.1037 325.035 54.8788 324.986 54.7523 324.832L54.7593 324.825Z"
        fill="#3C3C3B" />
    <path
        d="M56.1159 319.447C58.5058 319.665 60.8816 319.736 63.2293 319.447C65.584 319.222 67.8825 318.646 70.174 317.936C70.42 317.859 70.6801 317.999 70.7574 318.238C70.8277 318.449 70.7293 318.681 70.5395 318.787C68.3464 319.989 65.8722 320.635 63.3839 320.916C60.8886 321.141 58.3441 321.001 55.9542 320.277C55.7293 320.206 55.6028 319.975 55.6731 319.75C55.7293 319.553 55.9261 319.433 56.1229 319.447H56.1159Z"
        fill="#3C3C3B" />
    <path
        d="M9.61886 271.847C13.6043 270.181 18.4684 272.606 20.8513 276.205C23.2341 279.804 23.691 284.295 24.4079 288.548C25.1249 292.807 26.355 297.327 29.6938 300.054C33.1802 302.901 38.712 303.632 40.4623 307.779C41.8118 310.963 40.16 314.527 38.944 317.76C37.728 320.994 37.2008 325.26 39.9421 327.369C40.8418 328.065 41.9665 328.388 42.9857 328.908C45.5372 330.209 47.3859 332.81 47.7654 335.649C48.0888 338.053 47.421 340.464 46.7532 342.791C44.3423 351.296 41.9243 359.801 39.5133 368.306C32.5897 363.379 25.6661 358.451 18.7425 353.531C14.6024 350.586 10.2515 347.381 8.38175 342.65C6.51202 337.927 8.47312 331.34 13.4356 330.23C12.0931 325.71 7.53826 323.095 4.09404 319.876C0.649808 316.65 -1.75412 310.781 1.63387 307.498C3.0678 306.113 5.26085 305.558 6.3363 303.878C8.05841 301.2 5.92158 297.84 4.48766 295C1.09967 288.288 -0.130414 278.89 5.33115 273.934C6.99 273.035 8.40986 272.339 9.6048 271.84L9.61886 271.847Z"
        fill="#91CCA2" />
    <path
        d="M48.0395 383.51C43.3863 375.75 39.183 367.73 35.4857 359.471C31.7462 351.24 28.4004 342.826 25.392 334.293C22.3625 325.766 19.6704 317.128 17.2032 308.433C14.7711 299.724 12.5007 290.98 10.631 282.137C10.5888 281.94 10.7154 281.744 10.9192 281.701C11.109 281.659 11.2917 281.772 11.348 281.954C14.0612 290.579 16.3878 299.295 18.869 307.969C21.3081 316.65 23.8456 325.303 26.6502 333.871C29.4759 342.425 32.5827 350.902 36.2026 359.161C39.8648 367.392 43.9276 375.469 48.6722 383.13C48.7776 383.306 48.7284 383.531 48.5527 383.637C48.3769 383.742 48.152 383.693 48.0466 383.517C48.0466 383.517 48.0466 383.517 48.0466 383.51H48.0395Z"
        fill="#3C3C3B" />
    <path
        d="M33.2083 354.473C29.4407 353.264 25.8419 351.556 22.3765 349.637C20.6615 348.646 18.9745 347.606 17.3508 346.474C15.7271 345.335 14.1526 344.14 12.6694 342.826C12.4445 342.629 12.4234 342.285 12.6202 342.06C12.803 341.856 13.1052 341.821 13.3231 341.968C14.9609 343.037 16.5846 344.112 18.2364 345.138C19.8812 346.172 21.5401 347.184 23.2341 348.14C26.5869 350.101 30.0733 351.83 33.5738 353.559C33.8198 353.679 33.9252 353.981 33.7987 354.227C33.6863 354.452 33.4332 354.557 33.2013 354.48L33.2083 354.473Z"
        fill="#3C3C3B" />
    <path
        d="M31.4159 348.737C32.4 347.795 33.2716 346.755 34.1362 345.673C34.9867 344.576 35.8864 343.48 36.7861 342.404C37.6928 341.329 38.6066 340.267 39.5626 339.227C40.5115 338.187 41.4674 337.161 42.4937 336.183C42.7116 335.973 43.056 335.98 43.2669 336.198C43.4496 336.387 43.4637 336.676 43.3231 336.886C42.5218 338.053 41.6643 339.164 40.7927 340.274C39.9281 341.385 39.0213 342.46 38.1146 343.529C37.1938 344.59 36.287 345.652 35.303 346.685C34.3259 347.718 33.2716 348.744 32.0204 349.525C31.7885 349.672 31.4792 349.602 31.3316 349.363C31.205 349.159 31.2472 348.892 31.4089 348.737H31.4159Z"
        fill="#3C3C3B" />
    <path
        d="M22.3484 323.749C19.4384 322.73 16.6619 321.345 14.019 319.757C12.7046 318.955 11.4113 318.098 10.1812 317.17C8.95109 316.242 7.74913 315.265 6.63854 314.197C6.42064 313.993 6.41361 313.641 6.61745 313.423C6.80021 313.234 7.09543 313.206 7.31333 313.346L11.102 315.849C12.3672 316.671 13.6324 317.486 14.9187 318.274C17.4773 319.869 20.1062 321.345 22.7561 322.842C22.9951 322.976 23.0795 323.285 22.9459 323.524C22.8264 323.735 22.5734 323.826 22.3484 323.749Z"
        fill="#3C3C3B" />
    <path
        d="M20.3311 317.564C22.8545 316.298 25.2303 314.85 27.4023 313.121C28.4918 312.264 29.5251 311.336 30.5232 310.366C31.5143 309.396 32.4492 308.356 33.3629 307.287C33.5598 307.055 33.9042 307.027 34.1291 307.224C34.3259 307.393 34.3751 307.681 34.2486 307.906C33.5387 309.185 32.653 310.373 31.683 311.476C30.713 312.587 29.6305 313.585 28.4707 314.492C26.1441 316.291 23.5012 317.711 20.6826 318.498C20.4155 318.576 20.1413 318.414 20.064 318.154C20.0007 317.922 20.1132 317.676 20.3241 317.571L20.3311 317.564Z"
        fill="#3C3C3B" />
    <path
        d="M15.9942 359.899C41.6361 359.899 43.8714 360.012 66.3432 359.899V416.56C66.3432 430.373 55.1459 441.57 41.3339 441.57C27.3672 441.57 16.0364 430.253 16.0293 416.279L15.9942 359.899Z"
        fill="#FFDC75" />
    <g style="mix-blend-mode:multiply">
        <g style="mix-blend-mode:multiply">
            <path d="M399.702 194.085H372.479V184.869H399.702V194.085Z" fill="#E1F1F4" />
        </g>
        <g style="mix-blend-mode:multiply">
            <path d="M399.702 219.277H372.479V210.062H399.702V219.277Z" fill="#E1F1F4" />
        </g>
        <g style="mix-blend-mode:multiply">
            <path d="M383.774 206.681H356.551V197.465H383.774V206.681Z" fill="#E1F1F4" />
        </g>
        <g style="mix-blend-mode:multiply">
            <path d="M416.769 206.681H389.545V197.465H416.769V206.681Z" fill="#E1F1F4" />
        </g>
    </g>
    <g style="mix-blend-mode:multiply">
        <g style="mix-blend-mode:multiply">
            <path d="M160.089 371.596H132.866V362.381H160.089V371.596Z" fill="#E1F1F4" />
        </g>
        <g style="mix-blend-mode:multiply">
            <path d="M160.089 396.788H132.866V387.573H160.089V396.788Z" fill="#E1F1F4" />
        </g>
        <g style="mix-blend-mode:multiply">
            <path d="M144.169 384.192H116.945V374.977H144.169V384.192Z" fill="#E1F1F4" />
        </g>
        <g style="mix-blend-mode:multiply">
            <path d="M177.156 384.192H149.932V374.977H177.156V384.192Z" fill="#E1F1F4" />
        </g>
    </g>
    <path
        d="M256.992 177.046L273.735 230.692L314.791 231.781L314.63 237.763H195.741L180.488 177.651L256.992 177.039V177.046Z"
        fill="#BFDDE9" />
    <g style="mix-blend-mode:multiply">
        <path d="M271.837 237.763H195.741L180.488 177.651C190.356 221.301 220.806 241.334 271.837 237.763Z"
            fill="#BFDDE9" />
    </g>
    <path
        d="M48.2504 364.714C50.5841 366.858 52.7279 369.115 54.8929 371.364C57.0438 373.627 59.1946 375.884 61.1979 378.33C61.5072 378.709 61.451 379.264 61.0784 379.574C60.7691 379.827 60.3333 379.834 60.017 379.616C57.3811 377.795 55.0405 375.609 52.8544 373.29C50.6895 370.949 48.6722 368.468 47.0063 365.727C46.7743 365.347 46.8938 364.848 47.2804 364.616C47.5967 364.426 47.9904 364.475 48.2504 364.714Z"
        fill="#D6AD4A" />
    <path
        d="M32.4632 364.735C34.9233 367.582 37.4468 370.373 40.0264 373.114C42.6201 375.848 45.2068 378.59 47.8708 381.268C50.4786 384.002 53.1356 386.701 55.7222 389.471C58.3019 392.254 60.8605 395.073 63.2363 398.053C63.5385 398.433 63.4823 398.981 63.1027 399.283C62.7513 399.564 62.2522 399.529 61.9359 399.227L53.8525 391.284C51.1674 388.62 48.5034 385.928 45.8535 383.215C43.2527 380.445 40.6309 377.69 38.1637 374.78C35.6895 371.877 33.3067 368.883 31.1839 365.705C30.9379 365.34 31.0363 364.841 31.4018 364.588C31.7462 364.363 32.1961 364.426 32.4561 364.728L32.4632 364.735Z"
        fill="#D6AD4A" />
    <path
        d="M21.1043 370.654C24.0776 374.232 27.0157 377.823 30.0101 381.373C33.0115 384.916 35.9918 388.465 39.0916 391.924C42.1352 395.431 45.249 398.868 48.384 402.285C51.5119 405.715 54.689 409.096 57.845 412.519C58.1754 412.877 58.1543 413.426 57.7958 413.756C57.4655 414.065 56.9524 414.058 56.622 413.77C53.1215 410.67 49.7757 407.409 46.5002 404.07C43.2387 400.724 40.0827 397.273 36.9899 393.765C33.9534 390.209 30.9309 386.638 28.0771 382.941C25.2092 379.25 22.4328 375.49 19.825 371.61C19.579 371.244 19.6774 370.745 20.0429 370.492C20.3873 370.26 20.8512 370.338 21.1113 370.647L21.1043 370.654Z"
        fill="#D6AD4A" />
    <path
        d="M22.9599 395.396L29.8062 402.158C32.0906 404.4 34.3329 406.685 36.6595 408.885C38.9299 411.141 41.2494 413.348 43.562 415.562C45.8605 417.791 48.1941 419.991 50.4786 422.254C50.823 422.598 50.823 423.154 50.4856 423.498C50.1763 423.814 49.6843 423.843 49.3399 423.59C46.7391 421.671 44.2508 419.604 41.8118 417.481C39.3797 415.352 37.032 413.137 34.7054 410.888C32.435 408.59 30.1576 406.291 28.0067 403.88C25.8488 401.476 23.7401 399.023 21.772 396.458L21.765 396.45C21.4979 396.099 21.5611 395.593 21.9126 395.326C22.2359 395.08 22.6858 395.115 22.9669 395.389L22.9599 395.396Z"
        fill="#D6AD4A" />
    <path
        d="M23.5645 414.803C25.2514 416.223 26.8751 417.692 28.5269 419.133L33.4684 423.449L38.4238 427.737C40.0757 429.171 41.7486 430.583 43.3793 432.067C43.7378 432.397 43.7659 432.952 43.4426 433.311C43.1614 433.62 42.6975 433.683 42.346 433.479C40.4201 432.362 38.5925 431.09 36.8001 429.761C35.0077 428.44 33.2926 427.02 31.6197 425.551C29.9609 424.068 28.3301 422.549 26.8048 420.933C25.2655 419.33 23.7753 417.671 22.4117 415.907C22.1376 415.555 22.2008 415.049 22.5593 414.775C22.8686 414.536 23.2903 414.557 23.5715 414.796L23.5645 414.803Z"
        fill="#D6AD4A" />
</svg>